<?xml version="1.0" encoding="utf-8"?>
<!-- Generator: Adobe Illustrator 16.0.0, SVG Export Plug-In . SVG Version: 6.00 Build 0)  -->
<!DOCTYPE svg PUBLIC "-//W3C//DTD SVG 1.1//EN" "http://www.w3.org/Graphics/SVG/1.1/DTD/svg11.dtd">
<svg version="1.1" id="Calque_1" xmlns="http://www.w3.org/2000/svg" xmlns:xlink="http://www.w3.org/1999/xlink" x="0px" y="0px"
	 width="44.333px" height="44.093px" viewBox="0 0 44.333 44.093" enable-background="new 0 0 44.333 44.093" xml:space="preserve">
<g opacity="0.6">
	<path fill="#FFFFFF" d="M14.188,41.596l-0.731-0.346C6.159,37.792,1.444,30.345,1.444,22.275c0-3.228,0.714-6.326,2.124-9.207
		l0.403-0.826l8.699,6.152l-0.185,0.551c-0.36,1.076-0.542,2.196-0.542,3.329c0,3.973,2.206,7.559,5.755,9.358l0.656,0.333
		L14.188,41.596z M4.586,14.593c-1.048,2.425-1.579,5.004-1.579,7.682c0,7.198,4.054,13.862,10.395,17.2l2.941-6.8
		c-3.697-2.161-5.964-6.081-5.964-10.4c0-1.107,0.151-2.203,0.451-3.266L4.586,14.593z"/>
	<path fill="#FFFFFF" d="M31.217,16.521l-0.352-0.476c-1.972-2.666-5.126-4.258-8.436-4.258c-3.036,0-5.921,1.317-7.917,3.615
		l-0.464,0.534l-8.57-6.062l0.514-0.647c4.01-5.045,10.001-7.939,16.438-7.939c7.557,0,14.563,4.092,18.283,10.681l0.448,0.793
		L31.217,16.521z M22.43,10.224c3.604,0,7.047,1.643,9.326,4.421l7.127-2.693c-3.542-5.636-9.765-9.1-16.453-9.1
		c-5.681,0-10.986,2.435-14.685,6.711l6.068,4.292C16.076,11.539,19.178,10.224,22.43,10.224z"/>
	<path fill="#FFFFFF" d="M22.43,43.26c-1.575,0-3.147-0.176-4.673-0.523l-0.918-0.208l4.256-9.839l0.553,0.04
		c0.258,0.019,0.518,0.032,0.781,0.032c5.783,0,10.487-4.705,10.487-10.487c0-0.856-0.105-1.711-0.313-2.543l-0.168-0.675
		l9.824-3.712l0.243,0.798c0.605,1.981,0.912,4.044,0.912,6.131C43.415,33.846,34.001,43.26,22.43,43.26z M19.031,41.4
		c1.118,0.197,2.257,0.297,3.399,0.297c10.709,0,19.422-8.713,19.422-19.422c0-1.651-0.208-3.286-0.617-4.871l-6.964,2.631
		c0.14,0.738,0.21,1.489,0.21,2.24c0,6.645-5.406,12.05-12.051,12.05c-0.112,0-0.225-0.002-0.336-0.005L19.031,41.4z"/>
</g>
</svg>
