<?xml version="1.0" encoding="utf-8"?>
<!-- Generator: Adobe Illustrator 16.0.0, SVG Export Plug-In . SVG Version: 6.00 Build 0)  -->
<!DOCTYPE svg PUBLIC "-//W3C//DTD SVG 1.1//EN" "http://www.w3.org/Graphics/SVG/1.1/DTD/svg11.dtd">
<svg version="1.1" id="Calque_1" xmlns="http://www.w3.org/2000/svg" xmlns:xlink="http://www.w3.org/1999/xlink" x="0px" y="0px"
	 width="44.333px" height="44.093px" viewBox="0 0 44.333 44.093" enable-background="new 0 0 44.333 44.093" xml:space="preserve">
<g>
	<path fill="#CBBCA5" d="M14.188,41.596l-0.731-0.347C6.159,37.792,1.444,30.345,1.444,22.275c0-3.228,0.714-6.326,2.124-9.207
		l0.403-0.826l8.699,6.152l-0.185,0.551c-0.36,1.076-0.542,2.196-0.542,3.329c0,3.974,2.206,7.56,5.755,9.358l0.656,0.332
		L14.188,41.596z"/>
	<path fill="#CBBCA5" d="M31.217,16.521l-0.352-0.476c-1.973-2.666-5.127-4.258-8.437-4.258c-3.036,0-5.921,1.317-7.917,3.615
		l-0.464,0.534l-8.57-6.062l0.514-0.647c4.01-5.045,10.001-7.939,16.438-7.939c7.557,0,14.562,4.092,18.283,10.681l0.447,0.793
		L31.217,16.521z"/>
	<path fill="#CBBCA5" d="M22.43,43.259c-1.575,0-3.147-0.176-4.673-0.522l-0.918-0.208l4.256-9.839l0.553,0.04
		c0.258,0.02,0.518,0.032,0.781,0.032c5.782,0,10.487-4.705,10.487-10.487c0-0.856-0.105-1.711-0.313-2.543l-0.168-0.675
		l9.823-3.712l0.244,0.798c0.604,1.981,0.912,4.044,0.912,6.131C43.415,33.846,34,43.259,22.43,43.259z"/>
</g>
</svg>
