<?xml version="1.0" encoding="utf-8"?>
<!-- Generator: Adobe Illustrator 16.0.0, SVG Export Plug-In . SVG Version: 6.00 Build 0)  -->
<!DOCTYPE svg PUBLIC "-//W3C//DTD SVG 1.1//EN" "http://www.w3.org/Graphics/SVG/1.1/DTD/svg11.dtd">
<svg version="1.1" id="Calque_1" xmlns="http://www.w3.org/2000/svg" xmlns:xlink="http://www.w3.org/1999/xlink" x="0px" y="0px"
	 width="44.333px" height="44.093px" viewBox="0 0 44.333 44.093" enable-background="new 0 0 44.333 44.093" xml:space="preserve">
<g opacity="0.6">
	<path fill="#FFFFFF" d="M10.324,13.181H4.009c-1.415,0-2.566-1.151-2.566-2.566V4.3c0-1.415,1.151-2.566,2.566-2.566h6.315
		c1.415,0,2.566,1.151,2.566,2.566v6.315C12.89,12.03,11.739,13.181,10.324,13.181z M4.009,3.708c-0.321,0-0.592,0.271-0.592,0.592
		v6.315c0,0.321,0.271,0.592,0.592,0.592h6.315c0.321,0,0.592-0.271,0.592-0.592V4.3c0-0.321-0.271-0.592-0.592-0.592H4.009z"/>
	<path fill="#FFFFFF" d="M10.324,42.359H4.009c-1.415,0-2.566-1.151-2.566-2.566v-6.315c0-1.415,1.151-2.566,2.566-2.566h6.315
		c1.415,0,2.566,1.151,2.566,2.566v6.315C12.89,41.208,11.739,42.359,10.324,42.359z M4.009,32.886
		c-0.321,0-0.592,0.271-0.592,0.592v6.315c0,0.321,0.271,0.592,0.592,0.592h6.315c0.321,0,0.592-0.271,0.592-0.592v-6.315
		c0-0.321-0.271-0.592-0.592-0.592H4.009z"/>
	<path fill="#FFFFFF" d="M10.324,27.771H4.009c-1.415,0-2.566-1.151-2.566-2.566v-6.316c0-1.415,1.151-2.566,2.566-2.566h6.315
		c1.415,0,2.566,1.151,2.566,2.566v6.316C12.89,26.619,11.739,27.771,10.324,27.771z M4.009,18.296
		c-0.321,0-0.592,0.271-0.592,0.592v6.316c0,0.321,0.271,0.592,0.592,0.592h6.315c0.321,0,0.592-0.271,0.592-0.592v-6.316
		c0-0.321-0.271-0.592-0.592-0.592H4.009z"/>
	<path fill="#FFFFFF" d="M39.14,11.208H20.193c-2.068,0-3.75-1.682-3.75-3.75s1.682-3.75,3.75-3.75H39.14
		c2.068,0,3.75,1.682,3.75,3.75S41.208,11.208,39.14,11.208z M20.193,5.681c-0.979,0-1.776,0.797-1.776,1.776
		s0.797,1.776,1.776,1.776H39.14c0.979,0,1.776-0.797,1.776-1.776s-0.797-1.776-1.776-1.776H20.193z"/>
	<path fill="#FFFFFF" d="M39.14,25.796H20.193c-2.068,0-3.75-1.682-3.75-3.75c0-2.067,1.682-3.75,3.75-3.75H39.14
		c2.068,0,3.75,1.683,3.75,3.75C42.89,24.114,41.208,25.796,39.14,25.796z M20.193,20.271c-0.979,0-1.776,0.796-1.776,1.776
		c0,0.98,0.797,1.776,1.776,1.776H39.14c0.979,0,1.776-0.796,1.776-1.776c0-0.979-0.797-1.776-1.776-1.776H20.193z"/>
	<path fill="#FFFFFF" d="M39.14,40.386H20.193c-2.068,0-3.75-1.682-3.75-3.75s1.682-3.75,3.75-3.75H39.14
		c2.068,0,3.75,1.682,3.75,3.75S41.208,40.386,39.14,40.386z M20.193,34.859c-0.979,0-1.776,0.797-1.776,1.776
		s0.797,1.776,1.776,1.776H39.14c0.979,0,1.776-0.797,1.776-1.776s-0.797-1.776-1.776-1.776H20.193z"/>
</g>
</svg>
