<?xml version="1.0" encoding="utf-8"?>
<!-- Generator: Adobe Illustrator 16.0.0, SVG Export Plug-In . SVG Version: 6.00 Build 0)  -->
<!DOCTYPE svg PUBLIC "-//W3C//DTD SVG 1.1//EN" "http://www.w3.org/Graphics/SVG/1.1/DTD/svg11.dtd">
<svg version="1.1" id="Calque_1" xmlns="http://www.w3.org/2000/svg" xmlns:xlink="http://www.w3.org/1999/xlink" x="0px" y="0px"
	 width="44.333px" height="44.093px" viewBox="0 0 44.333 44.093" enable-background="new 0 0 44.333 44.093" xml:space="preserve">
<g>
	<path fill="#CBBCA5" d="M10.324,13.181H4.009c-1.415,0-2.566-1.151-2.566-2.566V4.3c0-1.415,1.151-2.566,2.566-2.566h6.315
		c1.415,0,2.566,1.151,2.566,2.566v6.315C12.89,12.03,11.739,13.181,10.324,13.181z"/>
	<path fill="#CBBCA5" d="M10.324,42.359H4.009c-1.415,0-2.566-1.15-2.566-2.566v-6.314c0-1.415,1.151-2.566,2.566-2.566h6.315
		c1.415,0,2.566,1.151,2.566,2.566v6.314C12.89,41.208,11.739,42.359,10.324,42.359z"/>
	<path fill="#CBBCA5" d="M10.324,27.771H4.009c-1.415,0-2.566-1.15-2.566-2.566v-6.315c0-1.415,1.151-2.566,2.566-2.566h6.315
		c1.415,0,2.566,1.151,2.566,2.566v6.315C12.89,26.619,11.739,27.771,10.324,27.771z"/>
	<path fill="#CBBCA5" d="M39.14,11.208H20.193c-2.068,0-3.75-1.682-3.75-3.75s1.682-3.75,3.75-3.75H39.14
		c2.067,0,3.75,1.682,3.75,3.75S41.208,11.208,39.14,11.208z"/>
	<path fill="#CBBCA5" d="M39.14,25.796H20.193c-2.068,0-3.75-1.682-3.75-3.75c0-2.067,1.682-3.75,3.75-3.75H39.14
		c2.067,0,3.75,1.683,3.75,3.75C42.89,24.115,41.208,25.796,39.14,25.796z"/>
	<path fill="#CBBCA5" d="M39.14,40.386H20.193c-2.068,0-3.75-1.682-3.75-3.75s1.682-3.75,3.75-3.75H39.14
		c2.067,0,3.75,1.682,3.75,3.75S41.208,40.386,39.14,40.386z"/>
</g>
</svg>
