<?xml version="1.0" encoding="utf-8"?>
<!-- Generator: Adobe Illustrator 16.0.0, SVG Export Plug-In . SVG Version: 6.00 Build 0)  -->
<!DOCTYPE svg PUBLIC "-//W3C//DTD SVG 1.1//EN" "http://www.w3.org/Graphics/SVG/1.1/DTD/svg11.dtd">
<svg version="1.1" id="Calque_1" xmlns="http://www.w3.org/2000/svg" xmlns:xlink="http://www.w3.org/1999/xlink" x="0px" y="0px"
	 width="44.333px" height="44.093px" viewBox="0 0 44.333 44.093" enable-background="new 0 0 44.333 44.093" xml:space="preserve">
<g opacity="0.6">
	<path fill="#FFFFFF" d="M32.968,21.328c-1.367,0-2.748-0.275-4.065-0.84c-0.441-0.189-0.645-0.7-0.456-1.141
		c0.189-0.44,0.699-0.644,1.14-0.456c3.22,1.383,6.899,0.677,9.374-1.796c2.158-2.158,2.97-5.231,2.225-8.119l-3.698,3.699
		c-1.692,1.692-4.447,1.692-6.14,0c-0.817-0.817-1.267-1.909-1.267-3.071c0-1.162,0.45-2.252,1.267-3.069l3.699-3.698
		c-2.887-0.746-5.961,0.067-8.119,2.225c-2.473,2.474-3.179,6.153-1.797,9.374c0.14,0.327,0.067,0.705-0.184,0.956l-2.286,2.286
		c-0.338,0.34-0.888,0.34-1.227,0c-0.34-0.338-0.34-0.888,0-1.227l1.883-1.884c-1.359-3.74-0.454-7.895,2.384-10.733
		c2.979-2.979,7.408-3.829,11.286-2.163c0.265,0.113,0.456,0.35,0.51,0.633c0.055,0.283-0.034,0.574-0.239,0.777l-4.682,4.682
		c-0.489,0.489-0.759,1.143-0.759,1.841c0,0.699,0.27,1.353,0.759,1.842c1.016,1.016,2.669,1.016,3.684,0l4.681-4.681
		c0.204-0.204,0.496-0.294,0.778-0.239c0.282,0.054,0.52,0.245,0.634,0.51c1.664,3.877,0.815,8.307-2.165,11.287
		C38.222,20.29,35.622,21.328,32.968,21.328z"/>
	<path fill="#FFFFFF" d="M5.932,42.428c-1.162,0-2.252-0.45-3.069-1.267c-0.818-0.817-1.268-1.908-1.268-3.07
		c0-1.163,0.45-2.252,1.268-3.069l13.69-13.69c0.339-0.339,0.889-0.339,1.228,0c0.339,0.34,0.339,0.889,0,1.228L4.09,36.25
		c-0.489,0.489-0.759,1.143-0.759,1.841c0,0.699,0.27,1.353,0.759,1.842c0.979,0.979,2.705,0.978,3.684,0L19.06,28.647
		c0.339-0.34,0.889-0.34,1.228,0c0.339,0.339,0.339,0.888,0,1.227L9,41.161C8.184,41.979,7.094,42.428,5.932,42.428z"/>
	<path fill="#FFFFFF" d="M6.773,12.973c-0.311,0-0.599-0.166-0.754-0.437L2.09,5.66C1.896,5.32,1.953,4.892,2.229,4.616l2.456-2.457
		c0.276-0.276,0.704-0.334,1.044-0.14l6.877,3.93c0.283,0.162,0.452,0.469,0.437,0.796l-0.08,1.675
		c-0.023,0.479-0.423,0.853-0.908,0.826c-0.479-0.023-0.849-0.429-0.826-0.909l0.054-1.143L5.444,3.856L3.926,5.375l3.337,5.837
		l4.624-0.22c0.489-0.021,0.886,0.348,0.909,0.827c0.023,0.479-0.347,0.885-0.827,0.908l-5.155,0.245
		C6.801,12.973,6.786,12.973,6.773,12.973z"/>
	<path fill="#FFFFFF" d="M38.79,43.056c-1.162,0-2.253-0.45-3.069-1.268c-0.021-0.02-0.041-0.041-0.058-0.064l-13.702-13.7
		c-0.148-0.148-0.232-0.338-0.251-0.532l-1.28-3.87c-0.151-0.455,0.096-0.946,0.552-1.096c0.456-0.151,0.946,0.096,1.096,0.551
		l1.291,3.899l13.568,13.567c0.019,0.019,0.036,0.039,0.054,0.06c0.983,0.939,2.677,0.923,3.641-0.042
		c1.003-1.004,1.016-2.629,0.036-3.648c-0.02-0.016-0.038-0.033-0.053-0.048L27.045,23.297l-7.156-2.41
		c-0.454-0.153-0.699-0.645-0.545-1.1c0.153-0.455,0.646-0.698,1.1-0.545l7.155,2.41c0.182,0.022,0.358,0.102,0.495,0.239
		l13.708,13.708c0.021,0.018,0.041,0.036,0.057,0.052c0.818,0.817,1.267,1.907,1.267,3.069s-0.449,2.252-1.267,3.069
		C41.042,42.606,39.952,43.056,38.79,43.056z"/>
	<path fill="#FFFFFF" d="M37.306,38.104c-0.222,0-0.444-0.085-0.614-0.254L24.414,25.571c-0.339-0.339-0.339-0.889,0-1.228
		c0.338-0.34,0.888-0.34,1.228,0L37.92,36.622c0.339,0.339,0.339,0.889,0,1.229C37.75,38.02,37.528,38.104,37.306,38.104z"/>
	<path fill="#FFFFFF" d="M20.167,20.933c-0.222,0-0.443-0.084-0.613-0.252l-8.237-8.205c-0.34-0.339-0.34-0.889-0.002-1.229
		c0.338-0.34,0.889-0.341,1.229-0.002l8.237,8.205c0.339,0.338,0.341,0.888,0.002,1.228C20.612,20.848,20.39,20.933,20.167,20.933z"
		/>
</g>
</svg>
