<?xml version="1.0" encoding="utf-8"?>
<!-- Generator: Adobe Illustrator 16.0.0, SVG Export Plug-In . SVG Version: 6.00 Build 0)  -->
<!DOCTYPE svg PUBLIC "-//W3C//DTD SVG 1.1//EN" "http://www.w3.org/Graphics/SVG/1.1/DTD/svg11.dtd">
<svg version="1.1" id="Calque_1" xmlns="http://www.w3.org/2000/svg" xmlns:xlink="http://www.w3.org/1999/xlink" x="0px" y="0px"
	 width="44.333px" height="44.093px" viewBox="0 0 44.333 44.093" enable-background="new 0 0 44.333 44.093" xml:space="preserve">
<g>
	<path fill="#CBBCA5" d="M19.665,28.392l-3.011-2.913l1.437-1.368l-1.936-2.033l-1.512,1.44l-0.014-0.014l-0.521,0.521l-0.893,0.851
		l0.021,0.022L2.813,35.339c-0.805,0.804-1.248,1.877-1.248,3.021s0.443,2.217,1.248,3.021c0.833,0.833,1.927,1.249,3.021,1.249
		c1.094,0,2.188-0.416,3.021-1.249l11.899-11.918l-1.082-1.08L19.665,28.392z"/>
	<path fill="#CBBCA5" d="M28.141,22.074l-0.565-0.53l-0.196,0.202l-7.044-2.552l-7.664-7.635l0.256-5.337l-7.86-4.492L1.762,5.037
		l4.49,7.858l5.342-0.254l7.66,7.632l2.535,7.101l-0.202,0.218l14.418,14.424c0.805,0.804,1.878,1.247,3.021,1.247
		c1.145,0,2.217-0.443,3.02-1.248c0.804-0.804,1.247-1.876,1.247-3.021c0-1.144-0.443-2.216-1.247-3.021L28.141,22.074z
		 M36.986,38.036L24.584,25.632l1.08-1.081l12.402,12.403L36.986,38.036z"/>
	<path fill="#CBBCA5" d="M23.625,18.421l2.26-2.151l3.5,3.5l-0.301,0.702c1.316,0.565,2.696,0.84,4.061,0.84
		c2.653,0,5.25-1.037,7.215-3.002c2.976-2.976,3.825-7.401,2.161-11.276l-0.445-1.037l-5.525,5.527c-1.07,1.07-2.812,1.069-3.881,0
		c-0.516-0.515-0.8-1.204-0.8-1.94c0-0.735,0.284-1.425,0.8-1.94l5.526-5.526L37.16,1.673c-3.873-1.664-8.299-0.815-11.276,2.162
		c-2.854,2.853-3.746,7.04-2.348,10.795l-1.847,1.759L23.625,18.421z"/>
</g>
</svg>
