<?xml version="1.0" encoding="utf-8"?>
<!-- Generator: Adobe Illustrator 16.0.0, SVG Export Plug-In . SVG Version: 6.00 Build 0)  -->
<!DOCTYPE svg PUBLIC "-//W3C//DTD SVG 1.1//EN" "http://www.w3.org/Graphics/SVG/1.1/DTD/svg11.dtd">
<svg version="1.1" id="Calque_1" xmlns="http://www.w3.org/2000/svg" xmlns:xlink="http://www.w3.org/1999/xlink" x="0px" y="0px"
	 width="23px" height="20px" viewBox="0 0 23 20" enable-background="new 0 0 23 20" xml:space="preserve">
<g>
	<path fill="#404040" d="M3.688,19.092c0,0-0.016,0.484,0.453,0.484c0.589,0,5.449-0.008,5.449-0.008l0.008-4.465
		c0,0-0.075-0.734,0.64-0.734h2.258c0.848,0,0.793,0.734,0.793,0.734l-0.008,4.453h5.332c0.602,0,0.574-0.602,0.574-0.602v-8.234
		l-7.52-6.684l-7.98,6.684V19.092z M3.688,19.092"/>
	<path fill="#404040" d="M0.75,10.1c0,0,0.676,1.25,2.156,0l8.829-7.469l8.281,7.422c1.711,1.234,2.352,0,2.352,0L11.734,0.424
		L0.75,10.1z M0.75,10.1"/>
	<path fill="#404040" d="M19.812,2.611h-2.129l0.008,2.583l2.121,1.8V2.611z M19.812,2.611"/>
</g>
</svg>
