<?xml version="1.0" encoding="iso-8859-1"?>
<!-- Generator: Adobe Illustrator 18.0.0, SVG Export Plug-In . SVG Version: 6.00 Build 0)  -->
<!DOCTYPE svg PUBLIC "-//W3C//DTD SVG 1.0//EN" "http://www.w3.org/TR/2001/REC-SVG-20010904/DTD/svg10.dtd">
<svg version="1.0" id="Calque_1" xmlns="http://www.w3.org/2000/svg" xmlns:xlink="http://www.w3.org/1999/xlink" x="0px" y="0px"
	 viewBox="0 0 1190.55 841.89" style="enable-background:new 0 0 1190.55 841.89;" xml:space="preserve">
<g>
	<g>
		<defs>
			<rect id="SVGID_1_" x="402" y="253.89" width="384.961" height="335.76"/>
		</defs>
		<clipPath id="SVGID_2_">
			<use xlink:href="#SVGID_1_"  style="overflow:visible;"/>
		</clipPath>
		<path style="clip-path:url(#SVGID_2_);" d="M699.84,344.132c49.602,0,86.961-19.282,86.961-44.883
			c0-25.598-37.359-44.879-86.961-44.879c-49.602,0-86.961,19.281-86.961,44.879C612.879,324.85,650.238,344.132,699.84,344.132
			L699.84,344.132z M699.84,273.651c41.359,0,67.762,15.199,67.762,25.68c0,10.48-26.402,25.68-67.762,25.68
			c-41.359,0-67.762-15.2-67.762-25.68C632.078,288.85,658.48,273.651,699.84,273.651L699.84,273.651z M699.84,273.651"/>
		<path style="clip-path:url(#SVGID_2_);" d="M779.519,345.011c-4.961-1.84-10.48,0.718-12.32,5.679
			c-4.078,11.121-30.961,23.121-67.277,23.121c-35.363,0-61.844-11.363-66.961-22.32c-2.242-4.801-8-6.883-12.801-4.641
			c-4.801,2.239-6.879,8-4.641,12.801c9.359,20,43.281,33.36,84.402,33.36c19.598,0,38.637-3.2,53.758-9.121
			c16.641-6.481,27.602-15.68,31.602-26.641C787.039,352.37,784.48,346.85,779.519,345.011L779.519,345.011z M779.519,345.011"/>
		<path style="clip-path:url(#SVGID_2_);" d="M779.519,393.972c-4.961-1.84-10.48,0.718-12.32,5.679
			c-4.078,11.117-30.961,23.117-67.277,23.117c-35.363,0-61.844-11.359-66.961-22.32c-2.242-4.797-8-6.879-12.801-4.637
			c-4.801,2.239-6.879,8-4.641,12.797c9.359,20,43.281,33.364,84.402,33.364c19.598,0,38.637-3.204,53.758-9.122
			c16.641-6.479,27.602-15.679,31.602-26.64C787.039,401.331,784.48,395.811,779.519,393.972L779.519,393.972z M779.519,393.972"/>
		<path style="clip-path:url(#SVGID_2_);" d="M779.519,442.85c-4.961-1.839-10.48,0.719-12.32,5.68
			c-4.078,11.121-30.961,23.121-67.277,23.121c-35.363,0-61.844-11.358-66.961-22.319c-2.242-4.802-8-6.884-12.801-4.642
			c-4.801,2.239-6.879,8-4.641,12.801c9.359,20,43.281,33.359,84.402,33.359c19.598,0,38.637-3.199,53.758-9.121
			c16.641-6.479,27.602-15.679,31.602-26.64C787.039,450.21,784.48,444.69,779.519,442.85L779.519,442.85z M779.519,442.85"/>
		<path style="clip-path:url(#SVGID_2_);" d="M779.519,491.811c-4.961-1.839-10.48,0.719-12.32,5.68
			c-4.078,11.117-30.961,23.117-67.277,23.117c-35.363,0-61.844-11.358-66.961-22.316c-2.242-4.802-8-6.884-12.801-4.642
			c-4.801,2.239-6.879,8-4.641,12.797c9.359,20,43.281,33.363,84.402,33.363c19.598,0,38.637-3.203,53.758-9.121
			c16.641-6.479,27.602-15.679,31.602-26.64C787.039,499.089,784.48,493.569,779.519,491.811L779.519,491.811z M779.519,491.811"/>
		<path style="clip-path:url(#SVGID_2_);" d="M779.519,540.69c-4.961-1.84-10.48,0.719-12.32,5.681
			c-4.078,11.12-30.961,23.12-67.277,23.12c-35.363,0-61.844-11.358-66.961-22.319c-2.242-4.801-8-6.879-12.801-4.642
			c-4.801,2.238-6.879,8-4.641,12.802c9.359,20,43.281,33.358,84.402,33.358c19.598,0,38.637-3.199,53.758-9.121
			c16.641-6.479,27.602-15.679,31.602-26.64C787.039,548.05,784.48,542.53,779.519,540.69L779.519,540.69z M779.519,540.69"/>
	</g>
	<path d="M568.559,442.85c-4.957-1.839-10.481,0.719-12.321,5.68c-4.078,11.121-30.957,23.121-67.277,23.121
		c-35.359,0-61.84-11.358-66.961-22.319c-2.238-4.802-8-6.884-12.801-4.642c-4.801,2.239-6.879,8-4.64,12.801
		c9.363,20,43.281,33.359,84.402,33.359c19.598,0,38.641-3.199,53.758-9.121c16.64-6.479,27.601-15.679,31.601-26.64
		C576.078,450.21,573.52,444.69,568.559,442.85L568.559,442.85z M568.559,442.85"/>
	<path d="M568.559,491.811c-4.957-1.839-10.481,0.719-12.321,5.68c-4.078,11.117-30.957,23.117-67.277,23.117
		c-35.359,0-61.84-11.358-66.961-22.316c-2.238-4.802-8-6.884-12.801-4.642c-4.801,2.239-6.879,8-4.64,12.797
		c9.363,20,43.281,33.363,84.402,33.363c19.598,0,38.641-3.203,53.758-9.121c16.64-6.479,27.601-15.679,31.601-26.64
		C576.078,499.089,573.52,493.569,568.559,491.811L568.559,491.811z M568.559,491.811"/>
	<path d="M568.559,540.69c-4.957-1.84-10.481,0.719-12.321,5.681c-4.078,11.12-30.957,23.12-67.277,23.12
		c-35.359,0-61.84-11.358-66.961-22.319c-2.238-4.801-8-6.879-12.801-4.642c-4.801,2.238-6.879,8-4.64,12.802
		c9.363,20,43.281,33.358,84.402,33.358c19.598,0,38.641-3.199,53.758-9.121c16.64-6.479,27.601-15.679,31.601-26.64
		C576.078,548.05,573.52,542.53,568.559,540.69L568.559,540.69z M568.559,540.69"/>
	<path d="M488.961,352.21c-49.602,0-86.961,19.281-86.961,44.879c0,25.601,37.359,44.883,86.961,44.883
		c49.598,0,86.961-19.282,86.961-44.883C575.922,371.491,538.559,352.21,488.961,352.21L488.961,352.21z M488.961,422.768
		c-41.359,0-67.762-15.199-67.762-25.679c0-10.481,26.403-25.68,67.762-25.68c41.359,0,67.758,15.199,67.758,25.68
		C556.719,407.569,530.32,422.768,488.961,422.768L488.961,422.768z M488.961,422.768"/>
</g>
</svg>
