<?xml version="1.0" encoding="utf-8"?>
<!-- Generator: Adobe Illustrator 18.0.0, SVG Export Plug-In . SVG Version: 6.00 Build 0)  -->
<!DOCTYPE svg PUBLIC "-//W3C//DTD SVG 1.0//EN" "http://www.w3.org/TR/2001/REC-SVG-20010904/DTD/svg10.dtd">
<svg version="1.0" id="Calque_1" xmlns="http://www.w3.org/2000/svg" xmlns:xlink="http://www.w3.org/1999/xlink" x="0px" y="0px"
	 width="1024px" height="955px" viewBox="0 0 1024 955" enable-background="new 0 0 1024 955" xml:space="preserve">
<g>
	<g>
		<path fill="#FFFFFF" d="M801.49,385.361h-23.304c-0.287,0-0.521,0.232-0.521,0.521v31.069c0,0.288,0.233,0.521,0.521,0.521h23.304
			c0.287,0,0.52-0.232,0.52-0.521v-31.069C802.01,385.593,801.777,385.361,801.49,385.361L801.49,385.361z M778.707,387.138
			l1.18,1.178v26.202l-1.18,1.178V387.138z M780.926,414.212v-25.591h17.824v25.591H780.926z M799.055,387.581h-18.434l-1.18-1.18
			h20.792L799.055,387.581z M780.621,415.252h18.434l1.179,1.181h-20.792L780.621,415.252z M799.791,414.518v-26.202l1.178-1.178
			v28.558L799.791,414.518z M799.791,414.518"/>
	</g>
	<path fill="#FFFFFF" d="M797.051,389.8h-14.426c-0.287,0-0.519,0.232-0.519,0.52v22.193c0,0.288,0.232,0.521,0.519,0.521h14.426
		c0.287,0,0.522-0.232,0.522-0.521v-22.193C797.572,390.032,797.338,389.8,797.051,389.8L797.051,389.8z M788.373,401.491
		c-0.195-0.08-0.418-0.037-0.566,0.113l-0.25,0.246c-0.577,0.58-1.517,0.58-2.098,0c-0.366-0.365-0.516-0.904-0.39-1.408
		l1.994-7.979l0.743,2.972c-0.06-0.013-0.123-0.017-0.188-0.017c-0.555,0-1.006,0.45-1.006,1.006c0,0.555,0.451,1.004,1.006,1.004
		c0.238,0,0.457-0.084,0.63-0.224l1.616,6.466h-1.172v-1.698C788.693,401.761,788.566,401.571,788.373,401.491L788.373,401.491z
		 M787.653,396.424c0,0.019-0.016,0.034-0.034,0.034c-0.019,0-0.035-0.016-0.035-0.034c0-0.021,0.016-0.036,0.035-0.036
		C787.638,396.388,787.653,396.403,787.653,396.424L787.653,396.424z M788.174,410.207c1.082,0,1.988,0.767,2.205,1.786h-4.41
		C786.185,410.974,787.091,410.207,788.174,410.207L788.174,410.207z M788.693,409.208v-1.609l2.267,0.453l0.985,3.941h-0.513
		C791.231,410.567,790.111,409.434,788.693,409.208L788.693,409.208z M789.342,406.667l1.053-0.877l0.287,1.145L789.342,406.667z
		 M792.873,411.412l-1.59-6.362l0.553-0.459c0.168-0.141,0.231-0.373,0.156-0.578c-0.075-0.205-0.271-0.343-0.488-0.343h-0.566
		l-1.225-4.899c0.76,0.585,1.783,0.93,2.865,0.93c1.228,0,2.381-0.445,3.158-1.18c0.521,1.358,0.795,2.811,0.795,4.283
		C796.531,406.068,795.207,409.162,792.873,411.412L792.873,411.412z M795.24,397.532c-0.154,0.19-0.342,0.361-0.557,0.509
		c0.041-0.163,0.06-0.333,0.06-0.509c0-0.175-0.019-0.345-0.06-0.508C794.898,397.172,795.086,397.343,795.24,397.532
		L795.24,397.532z M793.705,397.532c0,0.622-0.506,1.126-1.127,1.126c-0.622,0-1.127-0.504-1.127-1.126
		c0-0.621,0.505-1.127,1.127-1.127C793.199,396.405,793.705,396.911,793.705,397.532L793.705,397.532z M790.471,398.041
		c-0.213-0.147-0.402-0.318-0.557-0.509c0.154-0.189,0.344-0.36,0.557-0.508c-0.039,0.163-0.06,0.333-0.06,0.508
		C790.41,397.708,790.432,397.878,790.471,398.041L790.471,398.041z M792.578,395.364c-1.344,0-2.6,0.533-3.369,1.395l-1.365-5.463
		c2.315,0.658,4.402,2.019,5.949,3.891c0.115,0.14,0.226,0.279,0.334,0.422C793.643,395.45,793.117,395.364,792.578,395.364
		L792.578,395.364z M783.144,390.84h3.253l-2.337,9.351c-0.214,0.855,0.04,1.773,0.665,2.397c0.79,0.79,1.979,0.945,2.928,0.465
		v1.138c0,0.287,0.233,0.521,0.521,0.521h1.893l-2.226,1.854c-0.119,0.1-0.188,0.244-0.188,0.399v2.243
		c-1.418,0.226-2.536,1.359-2.741,2.785h-1.768V390.84z M796.531,411.993h-2.764c1.185-1.185,2.117-2.576,2.764-4.09V411.993z
		 M794.596,394.523c-1.332-1.611-3.032-2.872-4.931-3.684h6.866v6.871C796.045,396.567,795.394,395.492,794.596,394.523
		L794.596,394.523z M794.596,394.523"/>
</g>
</svg>
