<?xml version="1.0" encoding="utf-8"?>
<!-- Generator: Adobe Illustrator 18.0.0, SVG Export Plug-In . SVG Version: 6.00 Build 0)  -->
<!DOCTYPE svg PUBLIC "-//W3C//DTD SVG 1.0//EN" "http://www.w3.org/TR/2001/REC-SVG-20010904/DTD/svg10.dtd">
<svg version="1.0" id="Calque_1" xmlns="http://www.w3.org/2000/svg" xmlns:xlink="http://www.w3.org/1999/xlink" x="0px" y="0px"
	 width="1024px" height="955px" viewBox="0 0 1024 955" enable-background="new 0 0 1024 955" xml:space="preserve">
<g>
	<path stroke="#000000" stroke-width="0.25" stroke-miterlimit="10" d="M696.854,393.257c0-0.321-0.259-0.582-0.58-0.582h-13.07
		c-0.321,0-0.581,0.261-0.581,0.582c0,0.322,0.26,0.582,0.581,0.582h13.07C696.595,393.839,696.854,393.579,696.854,393.257
		L696.854,393.257z M696.854,393.257"/>
	<path stroke="#000000" stroke-width="0.25" stroke-miterlimit="10" d="M677.059,413.376c0.041,0.29,0.289,0.499,0.575,0.499
		c0.026,0,0.055-0.001,0.083-0.006c0.318-0.044,0.539-0.34,0.494-0.656l-1.514-10.64l12.459-5.446v16.21
		c0,0.322,0.261,0.583,0.582,0.583c0.322,0,0.582-0.261,0.582-0.583v-16.21l8.493,3.713c0.003,0.001,0.007,0.004,0.01,0.005
		l3.955,1.729l-1.513,10.637c-0.044,0.319,0.176,0.612,0.495,0.659c0.317,0.047,0.612-0.176,0.658-0.496l1.575-11.072
		c0.036-0.26-0.104-0.511-0.345-0.615l-4.032-1.765l-0.49-7.616c-0.069-1.079-1.006-1.957-2.087-1.957h-3.653v-4.704
		c0-0.22-0.125-0.421-0.32-0.52c-0.056-0.028-1.377-0.684-3.328-0.684c-1.951,0-3.272,0.655-3.328,0.684
		c-0.195,0.099-0.32,0.3-0.32,0.52v4.704h-3.654c-1.08,0-2.016,0.878-2.086,1.957l-0.49,7.616l-4.033,1.765
		c-0.24,0.105-0.38,0.355-0.343,0.615L677.059,413.376z M687.254,386.029c0.447-0.165,1.333-0.425,2.484-0.425
		c1.142,0,2.035,0.261,2.484,0.427v4.316h-4.969V386.029z M681.511,392.379c0.03-0.471,0.454-0.867,0.925-0.867h14.604
		c0.472,0,0.895,0.397,0.927,0.867l0.451,7.018l-8.446-3.691c-0.019-0.01-0.036-0.016-0.053-0.022c-0.003,0-0.003-0.001-0.005-0.001
		c-0.039-0.013-0.081-0.022-0.125-0.024c-0.033-0.004-0.068-0.004-0.102,0c-0.045,0.002-0.086,0.012-0.125,0.024
		c-0.002,0-0.004,0.001-0.005,0.001c-0.017,0.006-0.034,0.012-0.051,0.018c-0.002,0.003-8.448,3.694-8.448,3.694L681.511,392.379z
		 M681.511,392.379"/>
	<path stroke="#000000" stroke-width="0.25" stroke-miterlimit="10" d="M672.09,416.247c1.1,0,2.156-0.437,2.942-1.193
		c0.785,0.757,1.841,1.193,2.938,1.193c1.102,0,2.16-0.436,2.945-1.193c0.783,0.757,1.84,1.193,2.94,1.193
		c1.114,0,2.155-0.429,2.942-1.192c0.783,0.757,1.84,1.192,2.939,1.192c1.098,0,2.156-0.436,2.94-1.192
		c0.786,0.764,1.825,1.192,2.941,1.192c1.1,0,2.157-0.437,2.941-1.193c0.786,0.757,1.845,1.193,2.943,1.193
		c1.101,0,2.157-0.436,2.94-1.192c0.785,0.757,1.842,1.192,2.941,1.192c0.321,0,0.582-0.261,0.582-0.582
		c0-0.321-0.261-0.581-0.582-0.581c-0.983,0-1.885-0.459-2.475-1.256c-0.109-0.146-0.283-0.234-0.467-0.234
		c-0.185,0-0.359,0.088-0.469,0.236c-0.578,0.784-1.502,1.254-2.472,1.254c-0.969,0-1.894-0.47-2.475-1.256
		c-0.109-0.146-0.283-0.234-0.469-0.234c-0.183,0-0.357,0.088-0.467,0.234c-0.581,0.786-1.505,1.256-2.475,1.256
		c-0.981,0-1.883-0.459-2.472-1.256c-0.108-0.146-0.283-0.234-0.468-0.234c-0.185,0-0.358,0.088-0.468,0.234
		c-0.581,0.786-1.506,1.256-2.475,1.256c-0.969,0-1.894-0.47-2.471-1.254c-0.109-0.148-0.283-0.236-0.467-0.236
		c-0.186,0-0.359,0.086-0.469,0.234c-0.594,0.797-1.494,1.256-2.476,1.256c-0.97,0-1.893-0.47-2.472-1.254
		c-0.109-0.148-0.283-0.236-0.468-0.236c-0.185,0-0.358,0.088-0.468,0.234c-0.581,0.786-1.507,1.256-2.479,1.256
		c-0.966,0-1.891-0.47-2.471-1.256c-0.109-0.148-0.283-0.234-0.469-0.234c-0.183,0-0.357,0.088-0.467,0.234
		c-0.59,0.797-1.491,1.256-2.475,1.256c-0.322,0-0.582,0.26-0.582,0.581C671.508,415.986,671.768,416.247,672.09,416.247
		L672.09,416.247z M672.09,416.247"/>
	<path stroke="#000000" stroke-width="0.25" stroke-miterlimit="10" d="M707.387,419.738c-0.983,0-1.885-0.458-2.475-1.255
		c-0.109-0.149-0.283-0.237-0.467-0.237c-0.185,0-0.359,0.088-0.469,0.237c-0.578,0.786-1.502,1.255-2.472,1.255
		c-0.969,0-1.894-0.469-2.475-1.255c-0.109-0.149-0.283-0.237-0.469-0.237c-0.183,0-0.357,0.088-0.467,0.237
		c-0.581,0.786-1.505,1.255-2.475,1.255c-0.981,0-1.883-0.458-2.472-1.255c-0.108-0.149-0.283-0.237-0.468-0.237
		c-0.185,0-0.358,0.088-0.468,0.237c-0.581,0.786-1.506,1.255-2.475,1.255c-0.969,0-1.894-0.469-2.471-1.255
		c-0.109-0.149-0.283-0.237-0.467-0.237c-0.186,0-0.359,0.088-0.469,0.236c-0.594,0.798-1.494,1.256-2.476,1.256
		c-0.97,0-1.893-0.469-2.472-1.255c-0.109-0.149-0.283-0.237-0.468-0.237c-0.185,0-0.358,0.088-0.468,0.237
		c-0.581,0.786-1.507,1.255-2.479,1.255c-0.966,0-1.891-0.469-2.471-1.255c-0.109-0.149-0.283-0.237-0.469-0.237
		c-0.183,0-0.357,0.088-0.467,0.237c-0.59,0.797-1.491,1.255-2.475,1.255c-0.322,0-0.582,0.26-0.582,0.581
		c0,0.321,0.26,0.582,0.582,0.582c1.1,0,2.156-0.437,2.942-1.192c0.785,0.756,1.841,1.192,2.938,1.192
		c1.102,0,2.16-0.437,2.945-1.192c0.783,0.756,1.84,1.192,2.94,1.192c1.114,0,2.155-0.427,2.942-1.192
		c0.783,0.756,1.84,1.192,2.939,1.192c1.098,0,2.156-0.437,2.94-1.192c0.786,0.766,1.825,1.192,2.941,1.192
		c1.1,0,2.157-0.437,2.941-1.192c0.786,0.756,1.845,1.192,2.943,1.192c1.101,0,2.157-0.437,2.94-1.192
		c0.785,0.756,1.842,1.192,2.941,1.192c0.321,0,0.582-0.261,0.582-0.582C707.969,419.998,707.708,419.738,707.387,419.738
		L707.387,419.738z M707.387,419.738"/>
</g>
</svg>
