<?xml version="1.0" encoding="utf-8"?>
<!-- Generator: Adobe Illustrator 18.0.0, SVG Export Plug-In . SVG Version: 6.00 Build 0)  -->
<!DOCTYPE svg PUBLIC "-//W3C//DTD SVG 1.0//EN" "http://www.w3.org/TR/2001/REC-SVG-20010904/DTD/svg10.dtd">
<svg version="1.0" id="Calque_1" xmlns="http://www.w3.org/2000/svg" xmlns:xlink="http://www.w3.org/1999/xlink" x="0px" y="0px"
	 width="1024px" height="955px" viewBox="0 0 1024 955" enable-background="new 0 0 1024 955" xml:space="preserve">
<g>
	<path stroke="#000000" stroke-width="0.25" stroke-miterlimit="10" d="M596.644,398.647h-15.232c-0.338,0-0.611,0.274-0.611,0.612
		c0,0.336,0.273,0.609,0.611,0.609h15.232c0.338,0,0.611-0.273,0.611-0.609C597.256,398.922,596.982,398.647,596.644,398.647
		L596.644,398.647z M596.644,398.647"/>
	<path stroke="#000000" stroke-width="0.25" stroke-miterlimit="10" d="M575.049,401.416h-2.258c-0.336,0-0.609,0.274-0.609,0.609
		c0,0.338,0.273,0.611,0.609,0.611h2.258c1.113,0,2.055,0.763,2.324,1.795h-4.426c-0.336,0-0.609,0.272-0.609,0.609
		c0,0.337,0.273,0.611,0.609,0.611h5.115c0.338,0,0.611-0.274,0.611-0.611C578.674,403.042,577.047,401.416,575.049,401.416
		L575.049,401.416z M575.049,401.416"/>
	<g>
		<path stroke="#000000" stroke-width="0.25" stroke-miterlimit="10" d="M603.01,402.637h2.256c0.336,0,0.611-0.273,0.611-0.611
			c0-0.336-0.275-0.609-0.611-0.609h-2.256c-2,0-3.625,1.626-3.625,3.625c0,0.337,0.271,0.611,0.609,0.611h5.115
			c0.336,0,0.609-0.274,0.609-0.611c0-0.337-0.273-0.609-0.609-0.609h-4.426C600.955,403.399,601.894,402.637,603.01,402.637
			L603.01,402.637z M603.01,402.637"/>
		<path stroke="#000000" stroke-width="0.25" stroke-miterlimit="10" d="M607.072,398.732c-0.856-0.893-2.018-1.387-3.272-1.387
			c-0.055,0-0.109,0.007-0.162,0.021l-1.961,0.542l-2.891-5.552c-0.518-0.995-1.801-1.772-2.922-1.772h-13.674
			c-1.119,0-2.404,0.777-2.922,1.772l-2.889,5.552l-1.963-0.542c-0.053-0.015-0.108-0.021-0.162-0.021
			c-1.254,0-2.416,0.493-3.272,1.387c-0.857,0.895-1.297,2.078-1.242,3.335l0.443,8.833c0.016,0.324,0.285,0.579,0.609,0.579H571
			v2.666c0,0.338,0.271,0.61,0.609,0.61h6.424c0.336,0,0.609-0.272,0.609-0.61v-0.834c0-0.337-0.273-0.611-0.609-0.611
			c-0.338,0-0.611,0.274-0.611,0.611v0.224h-5.203v-2.056h33.619v2.056h-5.203v-0.224c0-0.337-0.273-0.611-0.609-0.611
			c-0.338,0-0.611,0.274-0.611,0.611v0.834c0,0.338,0.273,0.61,0.611,0.61h6.422c0.338,0,0.611-0.272,0.611-0.61v-2.666h0.203
			c0.326,0,0.594-0.255,0.609-0.579l0.443-8.838C608.369,400.81,607.93,399.627,607.072,398.732L607.072,398.732z M607.096,402.006
			l-0.414,8.253h-35.307l-0.412-8.25c-0.041-0.917,0.279-1.78,0.902-2.433c0.606-0.632,1.424-0.988,2.311-1.009l2.35,0.649
			c0.002,0,0.002,0.001,0.004,0.001l2.277,0.63c0.326,0.089,0.662-0.102,0.752-0.427c0.09-0.325-0.102-0.661-0.426-0.751
			l-1.549-0.428l2.77-5.321c0.309-0.594,1.168-1.115,1.838-1.115h13.674c0.67,0,1.529,0.521,1.838,1.115l2.77,5.321l-1.547,0.428
			c-0.326,0.09-0.518,0.426-0.428,0.751c0.09,0.325,0.428,0.516,0.752,0.427l4.631-1.28c0.887,0.02,1.705,0.377,2.31,1.009
			C606.815,400.228,607.135,401.092,607.096,402.006L607.096,402.006z M607.096,402.006"/>
	</g>
	<path stroke="#000000" stroke-width="0.25" stroke-miterlimit="10" d="M603.801,396.125h2.127c0.338,0,0.611-0.274,0.611-0.609
		c0-0.338-0.273-0.612-0.611-0.612h-2.127c-0.336,0-0.609,0.274-0.609,0.612C603.191,395.851,603.465,396.125,603.801,396.125
		L603.801,396.125z M603.801,396.125"/>
	<path stroke="#000000" stroke-width="0.25" stroke-miterlimit="10" d="M572.129,396.125h2.127c0.338,0,0.611-0.274,0.611-0.609
		c0-0.338-0.273-0.612-0.611-0.612h-2.127c-0.336,0-0.609,0.274-0.609,0.612C571.519,395.851,571.793,396.125,572.129,396.125
		L572.129,396.125z M572.129,396.125"/>
	<path stroke="#000000" stroke-width="0.25" stroke-miterlimit="10" d="M595.799,406.185h-13.541c-0.338,0-0.611,0.272-0.611,0.609
		v1.633c0,0.336,0.273,0.609,0.611,0.609c0.336,0,0.609-0.273,0.609-0.609v-1.021h12.322v1.021c0,0.336,0.273,0.609,0.609,0.609
		c0.338,0,0.611-0.273,0.611-0.609v-1.633C596.41,406.457,596.137,406.185,595.799,406.185L595.799,406.185z M595.799,406.185"/>
	<path stroke="#000000" stroke-width="0.25" stroke-miterlimit="10" d="M592.414,403.125c0.338,0,0.611-0.273,0.611-0.609
		c0-0.338-0.273-0.612-0.611-0.612h-6.772c-0.338,0-0.609,0.274-0.609,0.612c0,0.336,0.271,0.609,0.609,0.609H592.414z
		 M592.414,403.125"/>
</g>
</svg>
