<?xml version="1.0" encoding="utf-8"?>
<!-- Generator: Adobe Illustrator 18.0.0, SVG Export Plug-In . SVG Version: 6.00 Build 0)  -->
<!DOCTYPE svg PUBLIC "-//W3C//DTD SVG 1.0//EN" "http://www.w3.org/TR/2001/REC-SVG-20010904/DTD/svg10.dtd">
<svg version="1.0" id="Calque_1" xmlns="http://www.w3.org/2000/svg" xmlns:xlink="http://www.w3.org/1999/xlink" x="0px" y="0px"
	 width="1024px" height="955px" viewBox="0 0 1024 955" enable-background="new 0 0 1024 955" xml:space="preserve">
<g>
	<g>
		<path stroke="#000000" stroke-width="0.25" stroke-miterlimit="10" d="M509.525,496.25c-0.08-0.099-0.197-0.154-0.324-0.154
			h-1.379c-0.301-0.075-2.174-0.628-2.174-2.752v-1.046c0-0.23-0.188-0.417-0.416-0.417h-2.785v-1.074h0.658
			c0.23,0,0.416-0.186,0.416-0.416v-2.56c0-0.23-0.186-0.417-0.416-0.417h-0.184v-1.325c0-0.229-0.186-0.416-0.416-0.416h-7.475
			c-0.23,0-0.418,0.186-0.418,0.416v1.742c0,0.229,0.188,0.416,0.418,0.416h0.182v1.729h-0.658c-0.23,0-0.416,0.186-0.416,0.416
			v1.49h-18.691c-0.23,0-0.416,0.187-0.416,0.417v1.046c0,2.124-1.873,2.677-2.174,2.752h-1.381c-0.125,0-0.244,0.056-0.322,0.152
			c-0.08,0.098-0.109,0.226-0.086,0.348l0.303,1.467c0.041,0.193,0.209,0.333,0.408,0.333h1.273
			c-0.234,1.096-0.58,3.776,0.449,7.595c1.213,4.509,0.869,5.663,0.254,6.799c-0.613,1.136-0.613,1.74-0.613,2.742v0.012
			c0,0.231,0.185,0.417,0.416,0.417h1.691c0.143,0,0.275-0.073,0.352-0.192c0.057-0.091,1.393-2.25,0.844-5.797
			c-0.316-2.033-1.049-6.769-0.195-9.823c0.969-0.174,3.084-0.403,5.998,0.129c3.608,0.66,8.047,0.669,8.092,0.669
			c0.045,0,4.482-0.009,8.09-0.669c2.92-0.533,5.037-0.301,6-0.128c0.854,3.055,0.119,7.789-0.195,9.822
			c-0.551,3.547,0.785,5.706,0.842,5.797c0.076,0.119,0.211,0.192,0.353,0.192h1.691c0.23,0,0.416-0.186,0.416-0.417v-0.012
			c0-1.002,0-1.607-0.615-2.742c-0.615-1.138-0.957-2.291,0.256-6.799c1.029-3.818,0.684-6.499,0.449-7.596h1.273
			c0.197,0,0.367-0.139,0.408-0.332l0.301-1.467C509.635,496.474,509.603,496.346,509.525,496.25L509.525,496.25z M492.863,496.096
			v-3.383h3.381v3.383H492.863z M497.078,492.713h3.381v3.383h-3.381V492.713z M501.291,495.568h4.256
			c0.156,0.199,0.328,0.375,0.508,0.527h-4.764V495.568z M505.07,494.736h-3.779v-2.023h3.524v0.631
			C504.815,493.874,504.912,494.334,505.07,494.736L505.07,494.736z M495.447,486.504h6.643v0.909h-6.643V486.504z M496.047,488.246
			h6.643v1.729h-6.643V488.246z M494.971,490.807h6.643v1.074h-6.643V490.807z M492.029,492.713v3.383h-3.381v-3.383H492.029z
			 M487.816,496.096h-3.381v-3.383h3.381V496.096z M483.602,492.713v3.383h-3.381v-3.383H483.602z M475.863,492.713h3.525v2.023
			h-3.779c0.158-0.402,0.254-0.862,0.254-1.392V492.713z M475.133,495.568h4.256v0.527h-4.764
			C474.805,495.943,474.977,495.768,475.133,495.568L475.133,495.568z M475.002,515.127h-1.025c0.01-0.698,0.076-1.137,0.512-1.94
			c0.82-1.516,1.002-3.01-0.184-7.412c-1.043-3.875-0.594-6.541-0.396-7.38h2.172c-0.217,0.368-0.565,1.281-0.57,1.314
			c-0.867,2.785-0.432,6.883,0.113,10.389C476.033,512.743,475.289,514.555,475.002,515.127L475.002,515.127z M498.281,499.458
			c-3.533,0.645-7.898,0.654-7.941,0.654c-0.045,0-4.406-0.007-7.941-0.654c-2.637-0.483-4.666-0.363-5.828-0.204
			c0.146-0.319,0.318-0.607,0.518-0.858h26.504c0.199,0.251,0.371,0.54,0.516,0.86C502.951,499.095,500.92,498.975,498.281,499.458
			L498.281,499.458z M506.375,505.775c-1.188,4.402-1.004,5.897-0.184,7.412c0.436,0.803,0.502,1.241,0.512,1.94h-1.027
			c-0.287-0.568-1.031-2.368-0.619-5.029c0.639-4.109,1.127-9.033-0.459-11.702h2.174
			C506.967,499.234,507.418,501.9,506.375,505.775L506.375,505.775z M508.56,497.562h-36.441l-0.131-0.635h36.703L508.56,497.562z
			 M508.56,497.562"/>
	</g>
	<path stroke="#000000" stroke-width="0.25" stroke-miterlimit="10" d="M481.912,494.821c0.107,0,0.217-0.044,0.295-0.122
		c0.076-0.078,0.121-0.185,0.121-0.294c0-0.11-0.045-0.216-0.121-0.295c-0.078-0.077-0.188-0.121-0.295-0.121
		c-0.111,0-0.219,0.044-0.297,0.121c-0.076,0.079-0.119,0.184-0.119,0.295c0,0.108,0.043,0.216,0.119,0.294
		C481.693,494.777,481.801,494.821,481.912,494.821L481.912,494.821z M481.912,494.821"/>
	<path stroke="#000000" stroke-width="0.25" stroke-miterlimit="10" d="M486.125,494.821c0.111,0,0.217-0.044,0.295-0.122
		c0.076-0.078,0.121-0.185,0.121-0.294c0-0.11-0.045-0.216-0.121-0.295c-0.078-0.077-0.184-0.121-0.295-0.121
		c-0.109,0-0.217,0.044-0.293,0.121c-0.078,0.079-0.123,0.184-0.123,0.295c0,0.108,0.045,0.216,0.123,0.294
		C485.908,494.777,486.016,494.821,486.125,494.821L486.125,494.821z M486.125,494.821"/>
	<path stroke="#000000" stroke-width="0.25" stroke-miterlimit="10" d="M490.045,494.11c-0.078,0.077-0.121,0.184-0.121,0.295
		c0,0.108,0.043,0.216,0.121,0.294c0.078,0.078,0.186,0.122,0.295,0.122c0.109,0,0.217-0.044,0.293-0.122
		c0.078-0.078,0.123-0.185,0.123-0.294c0-0.11-0.045-0.216-0.123-0.295c-0.076-0.077-0.184-0.121-0.293-0.121
		C490.23,493.989,490.123,494.033,490.045,494.11L490.045,494.11z M490.045,494.11"/>
	<path stroke="#000000" stroke-width="0.25" stroke-miterlimit="10" d="M494.555,493.989c-0.111,0-0.219,0.044-0.295,0.121
		c-0.078,0.079-0.121,0.184-0.121,0.295c0,0.108,0.043,0.216,0.121,0.294c0.076,0.078,0.184,0.122,0.295,0.122
		c0.107,0,0.217-0.044,0.293-0.122c0.078-0.078,0.123-0.184,0.123-0.294c0-0.11-0.045-0.218-0.123-0.295
		C494.772,494.033,494.662,493.989,494.555,493.989L494.555,493.989z M494.555,493.989"/>
	<path stroke="#000000" stroke-width="0.25" stroke-miterlimit="10" d="M498.768,493.989c-0.109,0-0.217,0.044-0.293,0.121
		c-0.08,0.079-0.123,0.184-0.123,0.295c0,0.108,0.043,0.216,0.123,0.294c0.076,0.078,0.184,0.122,0.293,0.122
		s0.217-0.044,0.295-0.122c0.078-0.078,0.121-0.185,0.121-0.294c0-0.11-0.043-0.216-0.121-0.295
		C498.984,494.033,498.879,493.989,498.768,493.989L498.768,493.989z M498.768,493.989"/>
</g>
</svg>
