<?xml version="1.0" encoding="utf-8"?>
<!-- Generator: Adobe Illustrator 16.0.0, SVG Export Plug-In . SVG Version: 6.00 Build 0)  -->
<!DOCTYPE svg PUBLIC "-//W3C//DTD SVG 1.1//EN" "http://www.w3.org/Graphics/SVG/1.1/DTD/svg11.dtd">
<svg version="1.1" id="Calque_1" xmlns="http://www.w3.org/2000/svg" xmlns:xlink="http://www.w3.org/1999/xlink" x="0px" y="0px"
	 width="68px" height="196px" viewBox="0 0 68 196" enable-background="new 0 0 68 196" xml:space="preserve">
<g>
	<g>
		<path fill="#988F8A" d="M30.76,68.685c0,0.422-0.342,0.763-0.765,0.763h-6.32c-0.422,0-0.763-0.341-0.763-0.763l0,0
			c0-0.421,0.341-0.763,0.763-0.763h6.32C30.417,67.921,30.76,68.263,30.76,68.685L30.76,68.685z"/>
		<path fill="#988F8A" d="M45.088,68.685c0,0.422-0.342,0.763-0.764,0.763h-6.32c-0.422,0-0.764-0.341-0.764-0.763l0,0
			c0-0.421,0.342-0.763,0.764-0.763h6.32C44.746,67.921,45.088,68.263,45.088,68.685L45.088,68.685z"/>
	</g>
	<path fill="#988F8A" d="M46.984,68.015H21.016c-2.334,0-4.234-1.899-4.234-4.234V37.565c0-2.335,1.899-4.235,4.234-4.235h25.968
		c2.334,0,4.233,1.9,4.233,4.235v26.216C51.219,66.116,49.318,68.015,46.984,68.015z M21.016,34.345
		c-1.775,0-3.219,1.445-3.219,3.22v26.216c0,1.775,1.444,3.219,3.219,3.219h25.968c1.774,0,3.22-1.444,3.22-3.219V37.565
		c0-1.775-1.442-3.22-3.22-3.22H21.016z"/>
	<path fill="#988F8A" d="M46.947,63.447H21.266V37.762h25.681V63.447z M22.281,62.432h23.652V38.777H22.281V62.432z"/>
	<g>
		<g>
			<path fill="#988F8A" d="M30.591,44.839c-3.464,0-6.284,2.821-6.284,6.289c0,3.467,2.82,6.288,6.284,6.288
				c3.467,0,6.292-2.82,6.292-6.288C36.883,47.66,34.058,44.839,30.591,44.839L30.591,44.839z M30.591,56.32
				c-2.861,0-5.192-2.332-5.192-5.192c0-2.865,2.331-5.197,5.192-5.197c2.865,0,5.196,2.332,5.196,5.197
				C35.787,53.989,33.456,56.32,30.591,56.32L30.591,56.32z"/>
			<path fill="#988F8A" d="M30.591,57.542c-3.535,0-6.411-2.877-6.411-6.414c0-3.538,2.876-6.416,6.411-6.416
				c3.539,0,6.418,2.878,6.418,6.416C37.01,54.665,34.13,57.542,30.591,57.542z M30.591,44.965c-3.395,0-6.157,2.764-6.157,6.163
				c0,3.397,2.762,6.161,6.157,6.161c3.399,0,6.165-2.764,6.165-6.161C36.756,47.729,33.991,44.965,30.591,44.965z M30.591,56.447
				c-2.933,0-5.319-2.386-5.319-5.319c0-2.936,2.386-5.324,5.319-5.324c2.936,0,5.323,2.388,5.323,5.324
				C35.914,54.061,33.527,56.447,30.591,56.447z M30.591,46.058c-2.793,0-5.065,2.274-5.065,5.07c0,2.793,2.272,5.066,5.065,5.066
				c2.795,0,5.069-2.272,5.069-5.066C35.66,48.332,33.386,46.058,30.591,46.058z"/>
		</g>
		<g>
			<path fill="#988F8A" d="M30.591,49.086c-1.132,0-2.048,0.922-2.048,2.05c0,1.133,0.917,2.05,2.048,2.05
				c1.128,0,2.049-0.917,2.049-2.05C32.641,50.008,31.719,49.086,30.591,49.086L30.591,49.086z M30.591,52.636
				c-0.829,0-1.506-0.672-1.506-1.5c0-0.83,0.678-1.502,1.506-1.502c0.83,0,1.501,0.672,1.501,1.502
				C32.093,51.964,31.421,52.636,30.591,52.636L30.591,52.636z"/>
			<path fill="#988F8A" d="M30.591,53.313c-1.199,0-2.175-0.977-2.175-2.177c0-1.201,0.976-2.177,2.175-2.177
				c1.2,0,2.176,0.977,2.176,2.177C32.767,52.337,31.792,53.313,30.591,53.313z M30.591,49.213c-1.06,0-1.921,0.863-1.921,1.923
				c0,1.06,0.862,1.923,1.921,1.923c1.06,0,1.922-0.863,1.922-1.923C32.514,50.076,31.651,49.213,30.591,49.213z M30.591,52.763
				c-0.9,0-1.633-0.729-1.633-1.626c0-0.898,0.733-1.629,1.633-1.629c0.898,0,1.628,0.731,1.628,1.629
				C32.22,52.034,31.489,52.763,30.591,52.763z M30.591,49.761c-0.761,0-1.38,0.617-1.38,1.375c0,0.757,0.619,1.373,1.38,1.373
				c0.758,0,1.375-0.616,1.375-1.373C31.966,50.378,31.349,49.761,30.591,49.761z"/>
		</g>
		<g>
			<path fill="#988F8A" d="M28.646,52.791c-0.07,0-0.141,0.025-0.194,0.078l-1.381,1.369c-0.108,0.108-0.108,0.281,0,0.39
				c0.107,0.106,0.281,0.106,0.387,0l1.381-1.374c0.108-0.104,0.108-0.276,0-0.385C28.787,52.816,28.714,52.791,28.646,52.791
				L28.646,52.791z"/>
			<path fill="#988F8A" d="M27.264,54.833c-0.107,0-0.208-0.042-0.283-0.117c-0.157-0.157-0.157-0.413,0-0.569l1.382-1.369
				c0.146-0.148,0.419-0.148,0.566,0.001c0.077,0.077,0.119,0.179,0.118,0.287c-0.001,0.106-0.044,0.205-0.121,0.278l-1.38,1.372
				C27.473,54.792,27.372,54.833,27.264,54.833z M28.646,52.917c-0.041,0-0.078,0.014-0.104,0.041l-1.382,1.369
				c-0.059,0.059-0.058,0.15,0,0.209c0.055,0.056,0.152,0.055,0.208,0l1.382-1.374c0.028-0.027,0.043-0.062,0.043-0.099
				c0-0.039-0.016-0.077-0.044-0.105C28.724,52.933,28.686,52.917,28.646,52.917z"/>
		</g>
		<g>
			<path fill="#988F8A" d="M32.704,49.448l1.381-1.369c0.106-0.108,0.106-0.281,0-0.387c-0.055-0.054-0.124-0.081-0.197-0.081
				c-0.065,0-0.137,0.026-0.191,0.081l-1.381,1.367c-0.106,0.107-0.106,0.28,0,0.389C32.423,49.555,32.596,49.555,32.704,49.448
				L32.704,49.448z"/>
			<path fill="#988F8A" d="M32.51,49.655c-0.107,0-0.208-0.042-0.284-0.118c-0.155-0.158-0.154-0.412,0-0.567l1.382-1.368
				c0.153-0.152,0.419-0.147,0.567,0c0.156,0.155,0.156,0.409,0,0.566l-1.382,1.369C32.717,49.613,32.617,49.655,32.51,49.655z
				 M33.889,47.738c-0.037,0-0.075,0.016-0.102,0.043l-1.382,1.367c-0.056,0.057-0.055,0.151,0.002,0.21
				c0.054,0.055,0.151,0.055,0.208-0.001l1.382-1.369c0.056-0.057,0.057-0.15,0-0.207C33.967,47.753,33.931,47.738,33.889,47.738z"
				/>
		</g>
		<g>
			<path fill="#988F8A" d="M32.704,52.869c-0.054-0.053-0.125-0.078-0.191-0.078c-0.071,0-0.144,0.025-0.197,0.078
				c-0.106,0.109-0.106,0.281,0,0.385l1.381,1.374c0.107,0.106,0.281,0.102,0.388,0c0.106-0.108,0.106-0.282,0-0.39L32.704,52.869z"
				/>
			<path fill="#988F8A" d="M33.889,54.832c-0.107,0-0.207-0.041-0.281-0.115l-1.381-1.374c-0.155-0.152-0.156-0.405-0.001-0.562
				c0.147-0.148,0.415-0.153,0.567-0.002l1.382,1.369c0.155,0.157,0.155,0.412,0.001,0.569
				C34.096,54.792,33.995,54.832,33.889,54.832z M32.513,52.917c-0.043,0-0.081,0.015-0.108,0.042c-0.055,0.057-0.056,0.149,0,0.204
				l1.381,1.374c0.054,0.053,0.153,0.053,0.212-0.002c0.055-0.056,0.055-0.149-0.003-0.208l-1.38-1.368
				C32.588,52.933,32.551,52.917,32.513,52.917z"/>
		</g>
		<g>
			<path fill="#988F8A" d="M28.452,49.555c0.106,0.106,0.281,0.106,0.387,0c0.108-0.107,0.108-0.281,0-0.389l-1.381-1.368
				c-0.052-0.059-0.125-0.082-0.191-0.082c-0.072,0-0.143,0.027-0.196,0.082c-0.108,0.107-0.108,0.281,0,0.387L28.452,49.555z"/>
			<path fill="#988F8A" d="M28.646,49.762c-0.107,0-0.208-0.042-0.283-0.117l-1.381-1.37c-0.076-0.075-0.119-0.175-0.119-0.282
				c0-0.107,0.042-0.208,0.119-0.285c0.151-0.156,0.434-0.153,0.572,0.006l1.375,1.361c0.077,0.077,0.12,0.178,0.119,0.286
				c0,0.107-0.042,0.208-0.119,0.284C28.854,49.72,28.753,49.762,28.646,49.762z M27.267,47.843c-0.04,0-0.078,0.015-0.104,0.043
				c-0.03,0.03-0.045,0.067-0.045,0.106s0.016,0.075,0.043,0.102l1.382,1.371c0.056,0.056,0.154,0.055,0.208,0
				c0.029-0.028,0.044-0.065,0.044-0.104s-0.016-0.076-0.044-0.105l-1.38-1.368C27.333,47.848,27.29,47.843,27.267,47.843z"/>
		</g>
		<g>
			<path fill="#988F8A" d="M32.926,51.149c0,0.152,0.125,0.274,0.278,0.274l1.942-0.005c0.15-0.005,0.273-0.127,0.273-0.278
				c-0.004-0.15-0.123-0.271-0.273-0.271L33.2,50.873C33.046,50.877,32.926,50.998,32.926,51.149L32.926,51.149z"/>
			<path fill="#988F8A" d="M33.205,51.55L33.205,51.55c-0.224,0-0.405-0.18-0.405-0.401c0-0.22,0.174-0.397,0.397-0.403l1.95-0.004
				c0.221,0,0.396,0.173,0.402,0.395c0,0.223-0.176,0.401-0.398,0.409L33.205,51.55z M35.146,50.996L33.201,51
				c-0.083,0.002-0.148,0.066-0.148,0.149c0,0.082,0.068,0.147,0.151,0.147l1.942-0.004c0.082-0.003,0.146-0.07,0.146-0.152
				C35.293,51.059,35.229,50.996,35.146,50.996z"/>
		</g>
		<g>
			<path fill="#988F8A" d="M28.23,51.125c0-0.154-0.121-0.272-0.273-0.272h-0.003l-1.945,0.002c-0.152,0-0.27,0.125-0.27,0.278
				c0,0.15,0.118,0.272,0.27,0.272l1.948-0.008C28.109,51.396,28.23,51.276,28.23,51.125L28.23,51.125z"/>
			<path fill="#988F8A" d="M26.01,51.531L26.01,51.531c-0.219,0-0.397-0.179-0.397-0.399c0-0.223,0.178-0.404,0.397-0.404
				l1.945-0.002c0.228,0,0.403,0.175,0.403,0.399c0,0.219-0.18,0.398-0.4,0.398L26.01,51.531z M27.957,50.979l-1.948,0.002
				c-0.08,0-0.143,0.066-0.143,0.151c0,0.081,0.063,0.145,0.143,0.145l1.948-0.008c0.083,0,0.147-0.063,0.147-0.145
				S28.041,50.979,27.957,50.979z"/>
		</g>
		<g>
			<path fill="#988F8A" d="M30.726,48.84c0.151,0,0.271-0.125,0.271-0.274l-0.004-1.943c0-0.152-0.125-0.274-0.277-0.274
				c-0.151,0-0.272,0.122-0.272,0.274l0.009,1.947C30.454,48.719,30.574,48.84,30.726,48.84L30.726,48.84z"/>
			<path fill="#988F8A" d="M30.726,48.967c-0.22,0-0.399-0.178-0.399-0.397l-0.009-1.947c0-0.222,0.179-0.401,0.399-0.401
				c0.223,0,0.403,0.18,0.403,0.401l0.004,1.942C31.124,48.788,30.945,48.967,30.726,48.967z M30.716,46.476
				c-0.081,0-0.145,0.064-0.145,0.147l0.009,1.947c0,0.081,0.064,0.144,0.146,0.144c0.079,0,0.144-0.066,0.144-0.147l-0.004-1.942
				C30.866,46.542,30.799,46.476,30.716,46.476z"/>
		</g>
		<g>
			<path fill="#988F8A" d="M30.716,53.471c-0.151,0-0.272,0.126-0.272,0.277l0.009,1.947c0,0.147,0.12,0.272,0.272,0.272
				c0.151,0,0.276-0.125,0.271-0.277l-0.004-1.947C30.988,53.597,30.868,53.471,30.716,53.471L30.716,53.471z"/>
			<path fill="#988F8A" d="M30.726,56.094c-0.22,0-0.399-0.179-0.399-0.399l-0.009-1.946c0-0.224,0.179-0.405,0.399-0.405
				c0.215,0,0.396,0.177,0.403,0.396l0.004,1.951c0.003,0.103-0.037,0.205-0.111,0.282C30.938,56.05,30.833,56.094,30.726,56.094z
				 M30.716,53.598c-0.08,0-0.145,0.067-0.145,0.15l0.009,1.946c0,0.121,0.165,0.189,0.25,0.101c0.026-0.028,0.041-0.063,0.04-0.101
				l-0.004-1.95C30.864,53.666,30.796,53.598,30.716,53.598z"/>
		</g>
	</g>
	<g>
		<path fill="#988F8A" d="M47.221,45.466c0,0.445-0.359,0.808-0.807,0.808l0,0c-0.447,0-0.807-0.363-0.807-0.808v-1.973
			c0-0.446,0.357-0.807,0.807-0.807l0,0c0.447,0,0.807,0.361,0.807,0.807V45.466z"/>
		<path fill="#988F8A" d="M46.414,46.528c-0.586,0-1.061-0.476-1.061-1.062v-1.973c0-0.585,0.475-1.061,1.061-1.061
			c0.584,0,1.061,0.476,1.061,1.061v1.973C47.475,46.052,46.998,46.528,46.414,46.528z M46.414,42.94
			c-0.305,0-0.553,0.249-0.553,0.553v1.973c0,0.306,0.248,0.555,0.553,0.555s0.553-0.249,0.553-0.555v-1.973
			C46.967,43.189,46.719,42.94,46.414,42.94z"/>
	</g>
	<g>
		<path fill="#988F8A" d="M47.244,57.662c0,0.444-0.361,0.807-0.807,0.807l0,0c-0.447,0-0.811-0.362-0.811-0.807v-1.973
			c0-0.445,0.359-0.808,0.811-0.808l0,0c0.443,0,0.807,0.362,0.807,0.808V57.662L47.244,57.662z"/>
		<path fill="#988F8A" d="M46.438,58.722c-0.586,0-1.062-0.476-1.062-1.061v-1.973c0-0.585,0.478-1.062,1.062-1.062
			s1.061,0.476,1.061,1.062v1.973C47.496,58.247,47.021,58.722,46.438,58.722z M46.438,55.135c-0.305,0-0.555,0.249-0.555,0.554
			v1.973c0,0.305,0.25,0.553,0.555,0.553c0.307,0,0.555-0.249,0.555-0.553v-1.973C46.99,55.384,46.742,55.135,46.438,55.135z"/>
	</g>
</g>
<g>
	<g>
		<path fill="#FFFFFF" d="M30.758,165.764c0,0.424-0.341,0.764-0.763,0.764h-6.32c-0.422,0-0.763-0.34-0.763-0.764l0,0
			c0-0.421,0.341-0.763,0.763-0.763h6.32C30.417,165.001,30.758,165.343,30.758,165.764L30.758,165.764z"/>
		<path fill="#FFFFFF" d="M45.088,165.764c0,0.424-0.342,0.764-0.764,0.764h-6.32c-0.422,0-0.764-0.34-0.764-0.764l0,0
			c0-0.421,0.342-0.763,0.764-0.763h6.32C44.746,165.001,45.088,165.343,45.088,165.764L45.088,165.764z"/>
	</g>
	<path fill="#FFFFFF" d="M46.984,165.096h-25.97c-2.334,0-4.233-1.9-4.233-4.234v-26.217c0-2.336,1.899-4.232,4.233-4.232h25.97
		c2.334,0,4.232,1.896,4.232,4.232v26.217C51.219,163.195,49.318,165.096,46.984,165.096z M21.015,131.425
		c-1.774,0-3.218,1.444-3.218,3.22v26.217c0,1.774,1.443,3.221,3.218,3.221h25.969c1.774,0,3.22-1.443,3.22-3.221v-26.217
		c0-1.773-1.442-3.22-3.22-3.22H21.015z"/>
	<g>
		<path fill="#FFFFFF" d="M30.591,143.01c-2.862,0-5.193,2.332-5.193,5.198c0,2.86,2.331,5.192,5.193,5.192
			c2.865,0,5.196-2.332,5.196-5.192C35.787,145.342,33.456,143.01,30.591,143.01z M30.716,143.301c0.222,0,0.403,0.182,0.403,0.401
			l0.004,1.942c0,0.222-0.179,0.4-0.398,0.4c-0.22,0-0.399-0.178-0.399-0.396l-0.01-1.946
			C30.316,143.48,30.496,143.301,30.716,143.301z M26.982,144.787c0.151-0.151,0.434-0.146,0.571,0.006l1.376,1.361
			c0.157,0.158,0.157,0.414,0.001,0.57c-0.076,0.073-0.177,0.114-0.285,0.114c-0.107,0-0.208-0.042-0.283-0.114l-1.38-1.369
			c-0.076-0.076-0.119-0.176-0.119-0.282C26.862,144.966,26.904,144.864,26.982,144.787z M26.008,148.609
			c-0.222,0-0.396-0.176-0.396-0.397c0-0.224,0.178-0.403,0.396-0.403l1.945-0.002c0.228,0,0.404,0.174,0.404,0.397
			c0,0.22-0.18,0.397-0.4,0.397L26.008,148.609L26.008,148.609z M28.928,150.424l-1.381,1.373c-0.075,0.076-0.176,0.116-0.283,0.116
			s-0.208-0.042-0.283-0.116c-0.077-0.076-0.118-0.178-0.118-0.285s0.042-0.207,0.118-0.285l1.382-1.367
			c0.143-0.145,0.415-0.149,0.567,0c0.077,0.078,0.119,0.183,0.118,0.289C29.045,150.253,29.004,150.352,28.928,150.424z
			 M31.012,153.052c-0.075,0.078-0.179,0.122-0.287,0.122c-0.22,0-0.399-0.178-0.399-0.398l-0.01-1.943
			c0-0.227,0.179-0.406,0.399-0.406c0.215,0,0.396,0.18,0.403,0.396l0.004,1.951C31.126,152.873,31.087,152.975,31.012,153.052z
			 M30.591,150.266c-1.132,0-2.049-0.916-2.049-2.05c0-1.128,0.917-2.05,2.049-2.05c1.127,0,2.049,0.922,2.049,2.05
			C32.64,149.35,31.718,150.266,30.591,150.266z M34.176,151.795c-0.08,0.076-0.181,0.116-0.288,0.116
			c-0.106,0-0.207-0.041-0.281-0.114l-1.382-1.373c-0.154-0.152-0.155-0.404-0.002-0.562c0.15-0.146,0.417-0.15,0.57-0.002
			l1.381,1.367C34.331,151.387,34.331,151.637,34.176,151.795z M35.549,148.217c0,0.223-0.176,0.401-0.398,0.408l-1.945,0.005
			c-0.223,0-0.405-0.181-0.405-0.401c0-0.22,0.175-0.396,0.398-0.401l1.95-0.004C35.365,147.82,35.543,147.995,35.549,148.217z
			 M34.175,145.248l-1.383,1.369c-0.075,0.074-0.176,0.117-0.283,0.117c-0.107,0-0.208-0.043-0.285-0.117
			c-0.153-0.159-0.153-0.413,0-0.568l1.383-1.367c0.151-0.149,0.415-0.148,0.568,0C34.331,144.837,34.331,145.09,34.175,145.248z"/>
		<path fill="#FFFFFF" d="M21.774,135.35v24.67h24.666v-24.67H21.774z M30.591,154.494c-3.464,0-6.283-2.818-6.283-6.286
			c0-3.469,2.819-6.29,6.283-6.29c3.467,0,6.292,2.821,6.292,6.29C36.883,151.676,34.058,154.494,30.591,154.494z"/>
		<path fill="#FFFFFF" d="M30.591,146.841c-0.761,0-1.379,0.616-1.379,1.375c0,0.757,0.618,1.374,1.379,1.374
			c0.758,0,1.375-0.617,1.375-1.374C31.966,147.457,31.349,146.841,30.591,146.841z"/>
	</g>
	<path fill="#FFFFFF" d="M47.219,142.546c0,0.446-0.357,0.81-0.805,0.81l0,0c-0.447,0-0.809-0.361-0.809-0.81v-1.973
		c0-0.445,0.359-0.808,0.809-0.808l0,0c0.447,0,0.805,0.36,0.805,0.808V142.546z"/>
	<path fill="#FFFFFF" d="M47.244,154.741c0,0.444-0.361,0.807-0.809,0.807l0,0c-0.445,0-0.809-0.36-0.809-0.807v-1.974
		c0-0.444,0.359-0.809,0.809-0.809l0,0c0.445,0,0.809,0.361,0.809,0.809V154.741L47.244,154.741z"/>
</g>
</svg>
