<?xml version="1.0" encoding="utf-8"?>
<!-- Generator: Adobe Illustrator 18.0.0, SVG Export Plug-In . SVG Version: 6.00 Build 0)  -->
<!DOCTYPE svg PUBLIC "-//W3C//DTD SVG 1.0//EN" "http://www.w3.org/TR/2001/REC-SVG-20010904/DTD/svg10.dtd">
<svg version="1.0" id="Calque_1" xmlns="http://www.w3.org/2000/svg" xmlns:xlink="http://www.w3.org/1999/xlink" x="0px" y="0px"
	 width="1024px" height="955px" viewBox="0 0 1024 955" enable-background="new 0 0 1024 955" xml:space="preserve">
<g>
	<path stroke="#000000" stroke-width="0.25" stroke-miterlimit="10" d="M389.815,519.859c-1.109,0-2.014-0.904-2.014-2.014
		c0-1.108,0.904-2.014,2.014-2.014c1.111,0,2.014,0.905,2.014,2.014C391.828,518.955,390.926,519.859,389.815,519.859
		L389.815,519.859z M389.815,516.859c-0.543,0-0.986,0.442-0.986,0.986c0,0.545,0.443,0.986,0.986,0.986
		c0.545,0,0.988-0.441,0.988-0.986C390.803,517.302,390.359,516.859,389.815,516.859L389.815,516.859z M389.815,515.536
		c-1.854,0-3.363-1.508-3.363-3.362c0-1.003,0.439-1.902,1.135-2.52c-0.826-0.128-1.645-0.331-2.443-0.605
		c0.023,0.125,0.037,0.252,0.037,0.385c0,1.109-0.902,2.014-2.014,2.014c-1.109,0-2.014-0.904-2.014-2.014
		c0-0.771,0.436-1.44,1.072-1.779c-0.895-0.56-1.738-1.228-2.514-2.006c-5.572-5.57-5.572-14.637,0-20.209
		c0.199-0.201,0.525-0.201,0.725,0c0.201,0.2,0.201,0.524,0,0.725c-5.172,5.171-5.172,13.587,0,18.759
		c2.586,2.586,5.983,3.878,9.379,3.879c3.398,0,6.793-1.292,9.379-3.879c5.172-5.172,5.172-13.588,0-18.759
		c-0.199-0.201-0.199-0.525,0-0.725c0.201-0.201,0.525-0.201,0.727,0c5.572,5.572,5.572,14.639,0,20.209
		c-0.777,0.777-1.621,1.446-2.514,2.006c0.637,0.339,1.07,1.009,1.07,1.779c0,1.109-0.902,2.014-2.012,2.014
		c-1.111,0-2.016-0.904-2.016-2.014c0-0.133,0.014-0.261,0.037-0.385c-0.797,0.274-1.615,0.478-2.441,0.605
		c0.695,0.617,1.133,1.517,1.133,2.52C393.178,514.028,391.67,515.536,389.815,515.536L389.815,515.536z M389.815,509.835
		c-1.289,0-2.338,1.05-2.338,2.339c0,1.288,1.049,2.338,2.338,2.338c1.289,0,2.338-1.05,2.338-2.338
		C392.152,510.885,391.103,509.835,389.815,509.835L389.815,509.835z M396.465,508.446c-0.545,0-0.988,0.442-0.988,0.987
		c0,0.543,0.443,0.986,0.988,0.986c0.543,0,0.986-0.443,0.986-0.986C397.451,508.889,397.008,508.446,396.465,508.446
		L396.465,508.446z M383.166,508.446c-0.545,0-0.986,0.442-0.986,0.987c0,0.543,0.441,0.986,0.986,0.986
		c0.543,0,0.986-0.443,0.986-0.986C384.152,508.889,383.709,508.446,383.166,508.446L383.166,508.446z M389.815,514.121
		c-0.137,0-0.266-0.056-0.363-0.151l-1.434-1.435c-0.096-0.097-0.15-0.226-0.15-0.361c0-0.138,0.055-0.27,0.15-0.365l1.435-1.432
		c0.197-0.202,0.525-0.202,0.725,0l1.434,1.432c0.096,0.099,0.15,0.227,0.15,0.365c0,0.136-0.055,0.265-0.15,0.361l-1.434,1.435
		C390.082,514.065,389.951,514.121,389.815,514.121L389.815,514.121z M389.105,512.174l0.709,0.707l0.709-0.707l-0.709-0.709
		L389.105,512.174z M389.105,512.174"/>
</g>
</svg>
